<?xml version="1.0" encoding="UTF-8"?>
<svg version="1.1" xmlns="http://www.w3.org/2000/svg" width="640" height="640">
<path d="M0 0 C1.2375 0.02964844 2.475 0.05929688 3.75 0.08984375 C19.40102734 0.62640629 33.76320966 4.52407248 48 11 C48.65887207 11.29922363 49.31774414 11.59844727 49.99658203 11.90673828 C66.17063696 19.37198471 79.5329749 29.2048953 92 42 C92.85271484 42.78503906 92.85271484 42.78503906 93.72265625 43.5859375 C119.03295166 67.43699123 130.81800603 103.72811398 131.96484375 137.67578125 C132.63176164 175.78838349 117.5532295 211.3201072 91.83203125 239.13671875 C81.56689573 249.57695254 69.13216144 258.56053792 56 265 C54.91976562 265.56203125 53.83953125 266.1240625 52.7265625 266.703125 C45.47276442 270.37764745 38.12749793 273.06647379 30.3125 275.3125 C29.47025879 275.55484375 28.62801758 275.7971875 27.76025391 276.046875 C15.9390096 279.28770403 4.55940125 280.37975905 -7.6875 280.3125 C-8.39442993 280.31034485 -9.10135986 280.3081897 -9.82971191 280.30596924 C-20.49524541 280.2538202 -30.64777179 279.77773144 -41 277 C-42.16499023 276.70198486 -42.16499023 276.70198486 -43.35351562 276.39794922 C-80.28546384 266.79074913 -111.33183804 243.8695462 -130.73803711 210.92285156 C-149.27953299 178.31752591 -153.73696984 139.16350953 -143.9375 102.94921875 C-138.18924345 82.94810301 -128.66393225 64.74962054 -115 49 C-114.26910156 48.14792969 -113.53820312 47.29585937 -112.78515625 46.41796875 C-108.18077582 41.16818799 -103.46834637 36.34434695 -98 32 C-97.49259277 31.59668457 -96.98518555 31.19336914 -96.46240234 30.77783203 C-68.58813012 8.87375994 -35.40460921 -1.34502805 0 0 Z " fill="#27A1CA" transform="translate(354,90)"/>
<path d="M0 0 C8.30481795 6.8196046 13.14898886 14.9832352 14.37109375 25.71484375 C14.70386717 36.0184947 11.73295508 45.14986201 4.79443359 52.82788086 C0.53288087 57.12663862 -3.96568314 60.85227147 -8.81640625 64.46484375 C-10.33085156 65.60791078 -11.84517345 66.75114134 -13.359375 67.89453125 C-14.09849121 68.44979492 -14.83760742 69.00505859 -15.59912109 69.57714844 C-18.4573526 71.72899321 -21.29419797 73.90708236 -24.12890625 76.08984375 C-25.16402344 76.88648438 -26.19914062 77.683125 -27.265625 78.50390625 C-31.33437954 81.64448748 -35.38679617 84.80603966 -39.44140625 87.96484375 C-47.50900539 94.24923177 -55.62457836 100.46880261 -63.75439453 106.67236328 C-68.7442495 110.48487914 -73.71610993 114.32086555 -78.69140625 118.15234375 C-79.76947008 118.98185034 -80.84759581 119.81127648 -81.92578125 120.640625 C-82.46428711 121.05489746 -83.00279297 121.46916992 -83.55761719 121.89599609 C-84.64391507 122.73133514 -85.73050219 123.5662982 -86.81738281 124.40087891 C-89.5329225 126.48692939 -92.24258313 128.57985538 -94.94140625 130.6875 C-113.52950104 145.17593687 -131.92139807 157.34310827 -156.35205078 157.27832031 C-157.20171921 157.28018845 -158.05138763 157.28205658 -158.92680359 157.28398132 C-160.76501285 157.28797195 -162.60322703 157.29005893 -164.44144058 157.29044342 C-168.36473999 157.29388025 -172.28787682 157.31527198 -176.2111187 157.33567429 C-183.50437466 157.37356218 -190.79745449 157.40496489 -198.09082031 157.40283203 C-203.17490324 157.40204091 -208.25838593 157.42557736 -213.34231186 157.46471405 C-215.26938039 157.47511356 -217.19651872 157.47674313 -219.12360001 157.46906281 C-231.86332853 157.42336533 -242.97873152 157.67993215 -252.94018555 166.70166016 C-254.23312749 168.03538491 -255.5079771 169.38685015 -256.765625 170.75390625 C-257.80684258 171.83132584 -257.80684258 171.83132584 -258.86909485 172.93051147 C-261.05699888 175.1963795 -263.2201214 177.48374074 -265.37890625 179.77734375 C-267.54934723 182.07702079 -269.72489504 184.37026009 -271.92085266 186.64559937 C-273.27839819 188.05242011 -274.621894 189.47299063 -275.94816589 190.90933228 C-280.07342798 195.18762703 -284.51339391 198.87909137 -290.69140625 199.15234375 C-297.10393321 197.22840414 -300.91165392 193.49294581 -305.53857422 188.79101562 C-306.28901505 188.04437149 -307.03945587 187.29772736 -307.81263733 186.52845764 C-310.27949021 184.06898767 -312.73169167 181.5954617 -315.18359375 179.12109375 C-316.89682243 177.40547995 -318.61079209 175.69060581 -320.32546997 173.97644043 C-323.91071644 170.38807016 -327.4891554 166.79309283 -331.0625 163.19287109 C-335.64911771 158.57219762 -340.24886844 153.9648765 -344.85330009 149.36196136 C-348.38996782 145.8247507 -351.92140603 142.28235872 -355.45108414 138.73817444 C-357.14601405 137.03687037 -358.84216669 135.33678356 -360.53954697 133.63792419 C-362.9049855 131.26816372 -365.2637293 128.8919443 -367.62060547 126.51367188 C-368.32601974 125.80916397 -369.03143402 125.10465607 -369.75822449 124.37879944 C-370.39737289 123.73112106 -371.0365213 123.08344269 -371.69503784 122.4161377 C-372.2528488 121.85497505 -372.81065975 121.29381241 -373.38537407 120.71564484 C-376.2759749 117.25563865 -376.03330401 113.44454672 -375.69140625 109.15234375 C-374.21484375 106.5546875 -374.21484375 106.5546875 -372.06640625 104.08984375 C-371.25171875 103.15398437 -370.43703125 102.218125 -369.59765625 101.25390625 C-365.19175904 96.4798196 -360.55176787 91.93388991 -355.921875 87.37890625 C-352.89331431 84.38408274 -350.07966241 81.25836929 -347.328125 78.0078125 C-344.66210306 74.98547259 -341.75470177 72.20800136 -338.88671875 69.37890625 C-336.25133882 66.70601201 -333.81374136 63.89866072 -331.37109375 61.05078125 C-329.16661562 58.55920829 -326.80468611 56.25338521 -324.4296875 53.92578125 C-322.650576 52.11068772 -321.01776862 50.21941485 -319.37890625 48.27734375 C-304.03931427 30.65892103 -283.36398631 20.23618342 -260.12890625 18.40234375 C-242.18678731 17.30483736 -226.37189121 22.03454162 -210.40112305 29.97875977 C-200.2911019 34.97595939 -190.61164151 36.26233994 -179.4765625 36.36328125 C-177.72069366 36.39134074 -175.9648344 36.42000514 -174.20898438 36.44921875 C-171.47957543 36.49042848 -168.75034734 36.52737808 -166.02075195 36.55371094 C-163.35982834 36.58151628 -160.69968076 36.62736455 -158.0390625 36.67578125 C-156.83395775 36.68066055 -156.83395775 36.68066055 -155.60450745 36.68563843 C-145.55479371 36.9006482 -137.96512238 40.24847759 -130.69140625 47.15234375 C-128.50356578 49.70720757 -126.58182687 52.37399829 -124.69140625 55.15234375 C-123.69701727 56.48986696 -122.69845924 57.82432942 -121.69140625 59.15234375 C-120.74523437 58.43691406 -119.7990625 57.72148437 -118.82421875 56.984375 C-111.56175305 51.50751746 -104.26357636 46.08850986 -96.87890625 40.77734375 C-90.64348699 36.2926306 -84.43435991 31.77504895 -78.25390625 27.21484375 C-77.47088135 26.63726318 -76.68785645 26.05968262 -75.88110352 25.46459961 C-71.82634428 22.47165265 -67.77533836 19.47369121 -63.7265625 16.47265625 C-59.76853072 13.54101274 -55.80222055 10.62103005 -51.82617188 7.71386719 C-50.46356217 6.71715496 -49.10269946 5.71804701 -47.74414062 4.71582031 C-33.08903183 -6.05906902 -16.42035495 -11.27260942 0 0 Z " fill="#11337A" transform="translate(500.69140625,351.84765625)"/>
<path d="M0 0 C3.85701316 3.37488652 3.85701316 3.37488652 4.2734375 7.015625 C4.30695313 7.95921875 4.34046875 8.9028125 4.375 9.875 C4.42398437 10.80828125 4.47296875 11.7415625 4.5234375 12.703125 C3.39029736 19.02841472 -2.10658299 22.72940433 -7 26.375 C-8.15639012 27.24460537 -9.31263607 28.11440248 -10.46875 28.984375 C-11.05527344 29.42201172 -11.64179688 29.85964844 -12.24609375 30.31054688 C-15.01835777 32.38820131 -17.75798729 34.50768642 -20.5 36.625 C-21.58316372 37.45855379 -22.66649745 38.29188669 -23.75 39.125 C-24.28625 39.5375 -24.8225 39.95 -25.375 40.375 C-69.25 74.125 -69.25 74.125 -70.8737793 75.37402344 C-71.96123001 76.2105491 -73.04863207 77.04713803 -74.13598633 77.88378906 C-76.78093787 79.91879288 -79.42681112 81.95256533 -82.07421875 83.984375 C-83.10160156 84.77328125 -84.12898437 85.5621875 -85.1875 86.375 C-85.70505859 86.77211182 -86.22261719 87.16922363 -86.75585938 87.57836914 C-90.06551847 90.12254571 -93.35916636 92.68623331 -96.64453125 95.26171875 C-97.44802002 95.89045898 -98.25150879 96.51919922 -99.0793457 97.16699219 C-100.66178979 98.40613449 -102.24243588 99.64757727 -103.82104492 100.89160156 C-113.70394386 108.625 -113.70394386 108.625 -117 108.625 C-117 109.285 -117 109.945 -117 110.625 C-129.32099255 117.05135471 -140.70391604 118.20333732 -154.31898308 118.14142036 C-157.1599664 118.12858955 -160.00000618 118.14026146 -162.84095764 118.15745544 C-167.85417428 118.18396389 -172.867153 118.18975874 -177.88043213 118.18835449 C-185.89707885 118.18611373 -193.91343074 118.20068332 -201.92996407 118.24394035 C-204.70102755 118.25363914 -207.4716083 118.24513593 -210.24266052 118.23524475 C-220.55113797 118.24867879 -229.97936376 119.11771078 -240 121.625 C-241.19066322 121.9201223 -241.19066322 121.9201223 -242.40538025 122.22120667 C-242.93160477 122.35445847 -243.45782928 122.48771027 -244 122.625 C-244 123.285 -244 123.945 -244 124.625 C-244.69738281 124.8415625 -245.39476562 125.058125 -246.11328125 125.28125 C-249.73994611 126.96944041 -252.33370539 129.38982903 -255.1875 132.125 C-255.75339844 132.65818848 -256.31929688 133.19137695 -256.90234375 133.74072266 C-258.61143183 135.35887108 -260.30816192 136.98883759 -262 138.625 C-262.49322754 139.10163086 -262.98645508 139.57826172 -263.49462891 140.06933594 C-268.27160069 144.71134619 -272.87069376 149.39454543 -277 154.625 C-280.99885941 153.01592101 -283.70014905 150.21377513 -286.68652344 147.21313477 C-287.24306107 146.66170807 -287.79959869 146.11028137 -288.3730011 145.54214478 C-290.20698533 143.72203628 -292.03347003 141.89461718 -293.859375 140.06640625 C-295.13139166 138.79827632 -296.40363194 137.53037067 -297.67608643 136.26268005 C-300.33907397 133.60714943 -302.99815828 130.94778197 -305.65478516 128.28588867 C-309.06515369 124.86971239 -312.48678021 121.46506426 -315.91161728 118.06340122 C-318.54014898 115.44957182 -321.16175256 112.82888 -323.7813797 110.20612907 C-325.04057562 108.94744767 -326.30214711 107.69113829 -327.56609344 106.43722725 C-329.32831478 104.68729105 -331.08079419 102.92814772 -332.83105469 101.16625977 C-333.3577626 100.64719559 -333.88447052 100.12813141 -334.42713928 99.59333801 C-338 95.96758624 -338 95.96758624 -338 92.625 C-336.38141711 90.85677454 -334.75172691 89.25192053 -333 87.625 C-331.89478346 86.538862 -330.79340485 85.44880883 -329.6953125 84.35546875 C-329.11547607 83.78078857 -328.53563965 83.2061084 -327.93823242 82.61401367 C-322.99604928 77.70377139 -318.14073563 72.80133504 -313.63671875 67.48046875 C-310.96705865 64.45400443 -308.05539322 61.67290057 -305.18359375 58.83984375 C-303.22025329 56.84840539 -301.37920331 54.81197422 -299.5625 52.6875 C-295.31145511 47.73290222 -290.64676814 43.20453194 -286 38.625 C-284.69869141 37.31595703 -284.69869141 37.31595703 -283.37109375 35.98046875 C-276.79827079 29.45095929 -270.43844388 27.24591255 -261.7421875 24.73828125 C-258.16560615 23.77187646 -258.16560615 23.77187646 -255.5859375 22.5078125 C-243.32493037 18.32203061 -227.57651585 21.67012628 -216 26.625 C-212.26977778 28.45878435 -208.69443259 30.49220526 -205.1484375 32.66015625 C-190.75420761 40.10253128 -175.16335802 39.14154954 -159.43286133 38.96484375 C-156.3934998 38.93812619 -153.3558188 38.9477715 -150.31640625 38.9609375 C-149.3985585 38.93929535 -148.48071075 38.9176532 -147.53504944 38.89535522 C-141.60080727 38.94066028 -138.2099327 40.21743398 -133.58262634 43.94522095 C-130.24723859 47.4853582 -129.54801079 50.73352114 -129.68359375 55.60546875 C-130.21197867 58.97799968 -131.86436957 61.02761164 -134 63.625 C-134.89223267 64.92981323 -134.89223267 64.92981323 -135.80249023 66.26098633 C-140.93259505 70.05382476 -146.25938662 69.31149406 -152.47265625 69.26171875 C-154.48195003 69.27757364 -156.49124379 69.29343772 -158.5005331 69.30984974 C-161.30837975 69.32667715 -164.11601145 69.32093543 -166.92388916 69.31530762 C-171.84187093 69.30885118 -176.75973355 69.33159335 -181.67759705 69.3639679 C-184.29406251 69.37891477 -186.91062044 69.38266772 -189.52711487 69.37419128 C-190.7119194 69.37792252 -191.89672394 69.38165375 -193.11743164 69.38549805 C-194.68032677 69.38286201 -194.68032677 69.38286201 -196.27479553 69.38017273 C-199.05476926 69.62992037 -200.58193626 70.31616585 -203 71.625 C-203.99 71.625 -204.98 71.625 -206 71.625 C-207.00818447 76.55633706 -207.56965238 79.5616489 -205.125 84.125 C-203.60899724 85.91787978 -203.60899724 85.91787978 -202 87.625 C-200.0698265 87.74004393 -198.1354256 87.7846753 -196.2019043 87.80200195 C-194.959384 87.81483719 -193.71686371 87.82767242 -192.43669128 87.84089661 C-191.06587117 87.84907113 -189.69504653 87.85651349 -188.32421875 87.86328125 C-187.28893508 87.86939454 -187.28893508 87.86939454 -186.23273659 87.87563133 C-182.56849082 87.89653567 -178.90428281 87.91080944 -175.23999023 87.92016602 C-171.48220594 87.93114456 -167.72502802 87.96542996 -163.96745586 88.00533772 C-161.0580397 88.03171787 -158.14876202 88.03987734 -155.23923683 88.04344749 C-153.85636181 88.04827108 -152.47349116 88.05976187 -151.09073448 88.07848549 C-141.02082661 88.20618741 -131.37225879 87.48998412 -122.96484375 81.44140625 C-122.29582031 80.69761719 -121.62679687 79.95382812 -120.9375 79.1875 C-120.24527344 78.44628906 -119.55304688 77.70507812 -118.83984375 76.94140625 C-116.94453192 74.7085521 -116.94453192 74.7085521 -115.75390625 72.2109375 C-113.18165365 68.41844036 -109.74063566 66.26692052 -106 63.6875 C-104.36385354 62.53358618 -102.72846087 61.37860293 -101.09375 60.22265625 C-100.25070312 59.62984863 -99.40765625 59.03704102 -98.5390625 58.42626953 C-94.48387972 55.54942928 -90.49345402 52.58661889 -86.5 49.625 C-80.36069116 45.08635042 -74.19643772 40.58532296 -68 36.125 C-59.438393 29.96008124 -50.94192095 23.7093839 -42.45703125 17.43945312 C-37.35572986 13.67227587 -32.24755768 9.9144106 -27.14086914 6.15454102 C-26.39442139 5.60467529 -25.64797363 5.05480957 -24.87890625 4.48828125 C-23.89772827 3.76572144 -23.89772827 3.76572144 -22.89672852 3.02856445 C-21.54708122 2.02983587 -20.2098128 1.01428491 -18.88134766 -0.01245117 C-13.47494907 -3.92798589 -5.35524056 -3.75418926 0 0 Z " fill="#D0695C" transform="translate(489,370.375)"/>
<path d="M0 0 C1.2375 0.02964844 2.475 0.05929688 3.75 0.08984375 C19.40102734 0.62640629 33.76320966 4.52407248 48 11 C48.65887207 11.29922363 49.31774414 11.59844727 49.99658203 11.90673828 C66.17063696 19.37198471 79.5329749 29.2048953 92 42 C92.85271484 42.78503906 92.85271484 42.78503906 93.72265625 43.5859375 C119.03295166 67.43699123 130.81800603 103.72811398 131.96484375 137.67578125 C132.63176164 175.78838349 117.5532295 211.3201072 91.83203125 239.13671875 C81.56689573 249.57695254 69.13216144 258.56053792 56 265 C54.91976562 265.56203125 53.83953125 266.1240625 52.7265625 266.703125 C45.47276442 270.37764745 38.12749793 273.06647379 30.3125 275.3125 C29.47025879 275.55484375 28.62801758 275.7971875 27.76025391 276.046875 C15.9390096 279.28770403 4.55940125 280.37975905 -7.6875 280.3125 C-8.39442993 280.31034485 -9.10135986 280.3081897 -9.82971191 280.30596924 C-20.49524541 280.2538202 -30.64777179 279.77773144 -41 277 C-42.16499023 276.70198486 -42.16499023 276.70198486 -43.35351562 276.39794922 C-80.28546384 266.79074913 -111.33183804 243.8695462 -130.73803711 210.92285156 C-149.27953299 178.31752591 -153.73696984 139.16350953 -143.9375 102.94921875 C-138.18924345 82.94810301 -128.66393225 64.74962054 -115 49 C-114.26910156 48.14792969 -113.53820312 47.29585937 -112.78515625 46.41796875 C-108.18077582 41.16818799 -103.46834637 36.34434695 -98 32 C-97.49259277 31.59668457 -96.98518555 31.19336914 -96.46240234 30.77783203 C-68.58813012 8.87375994 -35.40460921 -1.34502805 0 0 Z M-44 26 C-45.08667969 26.350625 -46.17335938 26.70125 -47.29296875 27.0625 C-79.4043396 38.32690293 -103.3452225 61.52300199 -118.03808594 91.89648438 C-124.78011768 106.63997307 -127.53779209 122.30591836 -127.39111328 138.40673828 C-127.37500242 140.49968564 -127.39108997 142.59070336 -127.41015625 144.68359375 C-127.45565145 172.69265174 -115.93701032 197.92003225 -98 219 C-97.31035156 219.84175781 -96.62070312 220.68351563 -95.91015625 221.55078125 C-88.00859442 230.90661826 -77.75107335 239.13723043 -67 245 C-65.68 245 -64.36 245 -63 245 C-63 245.66 -63 246.32 -63 247 C-60.77115855 247.95909551 -58.54194032 248.91729837 -56.3125 249.875 C-55.37374023 250.27912109 -55.37374023 250.27912109 -54.41601562 250.69140625 C-52.61267769 251.46561416 -50.80638637 252.23293164 -49 253 C-48.18789063 253.350625 -47.37578125 253.70125 -46.5390625 254.0625 C-25.82198638 261.71188195 -0.18082243 261.77658794 21 256 C22.08152344 255.73316406 23.16304687 255.46632813 24.27734375 255.19140625 C51.19037558 247.85148848 74.08099605 229.43132375 90 207 C90.556875 206.2265625 91.11375 205.453125 91.6875 204.65625 C109.31415795 179.31792919 113.11387353 148.20239886 109.375 118.0625 C104.30699906 91.80743957 90.11691651 65.67124988 69 49 C68.30076416 48.27647339 68.30076416 48.27647339 67.58740234 47.53833008 C64.6666253 44.70784466 61.08606275 42.79195454 57.625 40.6875 C56.82441162 40.19983154 56.02382324 39.71216309 55.19897461 39.2097168 C44.23829934 32.07933031 44.23829934 32.07933031 32 29 C32 28.34 32 27.68 32 27 C9.86416434 19.09434441 -21.7282602 18.19076252 -44 26 Z " fill="#0F337A" transform="translate(354,90)"/>
<path d="M0 0 C0.7414325 -0.00095673 1.48286499 -0.00191345 2.24676514 -0.00289917 C3.80318284 -0.00357603 5.35960344 -0.00175639 6.91601562 0.00244141 C9.30344911 0.00782733 11.69069707 0.00246414 14.078125 -0.00390625 C15.59375042 -0.00324598 17.10937572 -0.00196587 18.625 0 C19.3395636 -0.00202423 20.0541272 -0.00404846 20.79034424 -0.00613403 C25.8169094 0.0178297 25.8169094 0.0178297 28.046875 1.1328125 C26.8244679 21.66082137 26.8244679 21.66082137 20.046875 30.1328125 C18.96278556 31.56974237 17.87942338 33.00722127 16.796875 34.4453125 C16.30445313 35.09242188 15.81203125 35.73953125 15.3046875 36.40625 C12.32316439 40.49889973 11.51072442 44.34546218 11.578125 49.42578125 C12.18057757 52.90494485 13.54200016 55.69205193 15.046875 58.8828125 C18.51030261 66.48265603 19.66827485 73.35835339 17.37890625 81.51171875 C14.82731855 87.38371316 10.2481591 91.49112834 4.609375 94.3828125 C2.046875 95.1328125 2.046875 95.1328125 -1.828125 95.8828125 C-6.67078211 97.10949691 -9.91430427 99.14456663 -12.953125 103.1328125 C-13.88060831 105.66288699 -13.88060831 105.66288699 -14.46875 108.5 C-14.71471924 109.56492676 -14.96068848 110.62985352 -15.21411133 111.72705078 C-15.45798584 112.85095215 -15.70186035 113.97485352 -15.953125 115.1328125 C-16.31603638 116.80512939 -16.31603638 116.80512939 -16.6862793 118.51123047 C-17.67782655 123.14374452 -18.6639639 127.77699958 -19.61523438 132.41796875 C-21.49692105 141.18593356 -23.57936986 149.36204761 -30.953125 155.1328125 C-39.32598255 159.83579879 -47.3799966 159.96878176 -56.703125 158.5703125 C-63.87071379 155.40003284 -68.67787159 150.21319711 -71.953125 143.1328125 C-73.51447721 138.94357881 -74.88334 134.69638261 -76.265625 130.4453125 C-81.34838504 115.3626387 -87.84399291 100.7259161 -101.078125 90.9453125 C-102.64624023 89.6796875 -102.64624023 89.6796875 -103.953125 88.1328125 C-103.75161386 82.35005332 -102.28686041 77.72411172 -99.890625 72.5078125 C-99.58044434 71.82050049 -99.27026367 71.13318848 -98.95068359 70.42504883 C-85.4520817 41.10619335 -61.82644906 17.46390733 -31.24853516 6.13037109 C-20.90224123 2.64970185 -10.98156195 -0.03146535 0 0 Z " fill="#90B606" transform="translate(334.953125,111.8671875)"/>
<path d="M0 0 C6.19666309 1.20782416 9.23347905 6.29184882 13 11 C14.175625 12.175625 14.175625 12.175625 15.375 13.375 C34.86136693 32.86136693 45.98465921 60.34832519 46.19091797 87.76538086 C46.15030963 125.45281916 35.68048949 153.68426076 9 181 C1.1080981 188.65978714 -7.94716835 194.52431717 -17.4375 200 C-18.48550781 200.61560791 -18.48550781 200.61560791 -19.5546875 201.24365234 C-21.32624671 202.24382357 -23.16037835 203.13134778 -25 204 C-25.99 203.67 -26.98 203.34 -28 203 C-28.10489746 202.13834229 -28.10489746 202.13834229 -28.21191406 201.25927734 C-28.54158027 198.62883781 -28.89556391 196.00221186 -29.25 193.375 C-29.35957031 192.47136719 -29.46914063 191.56773437 -29.58203125 190.63671875 C-30.34061616 185.16692226 -31.27673331 181.29308837 -35 177 C-37.6824944 174.92158601 -37.6824944 174.92158601 -40.6875 173.1875 C-53.19900929 165.08466349 -61.35338009 154.79776442 -64.9296875 140.20703125 C-65.83674945 132.91075223 -64.9570082 128.06418278 -60.67578125 122.05078125 C-55.79133213 116.07330855 -50.67845101 111.27413829 -42.8125 110.25 C-37.21987425 109.83393961 -31.60395458 109.91466059 -26 110 C-26 109.34 -26 108.68 -26 108 C-25.40832031 107.75765625 -24.81664062 107.5153125 -24.20703125 107.265625 C-17.68938125 104.50120575 -12.18465248 101.81118341 -8.734375 95.25 C-6.90582439 89.64763217 -6.7366818 83.07590519 -8.98828125 77.59375 C-10.21936068 75.61182646 -11.52574623 73.80701391 -13 72 C-20.32209999 62.52434119 -21.05868853 50.5860969 -20 39 C-17.88310077 27.73379052 -13.38803878 17.77329605 -6 9 C-3.95535798 6.02919588 -1.97302858 3.01873373 0 0 Z " fill="#AFD752" transform="translate(418,136)"/>
<path d="M0 0 C0.93134766 0.00902344 1.86269531 0.01804687 2.82226562 0.02734375 C5.1109436 0.05081737 7.39908672 0.08365271 9.6875 0.125 C9.6875 0.455 9.6875 0.785 9.6875 1.125 C3.4175 1.125 -2.8525 1.125 -9.3125 1.125 C-2.54754022 28.18483912 10.64897905 55.76485078 30.97265625 75.32421875 C32.6875 77.125 32.6875 77.125 32.6875 79.125 C33.265 79.351875 33.8425 79.57875 34.4375 79.8125 C37.26878858 81.46408501 38.64840757 83.56398262 40.6875 86.125 C45.51901573 91.14401984 49.77884328 94.53083244 56.87158203 95.125 C59.14580484 95.16512906 61.421059 95.16335012 63.6953125 95.125 C65.50526199 95.1413147 65.50526199 95.1413147 67.35177612 95.15795898 C71.17294408 95.18397334 74.9914063 95.15535673 78.8125 95.125 C81.41668044 95.13309758 84.02085236 95.14478 86.625 95.16015625 C92.97965623 95.18990134 99.33299649 95.17490322 105.6875 95.125 C105.6875 95.455 105.6875 95.785 105.6875 96.125 C104.61833847 96.13086624 103.54917694 96.13673248 102.44761658 96.14277649 C92.3127226 96.20028729 82.17803737 96.27319379 72.0433569 96.36071491 C66.83450338 96.40521517 61.62572443 96.44451471 56.41674805 96.47143555 C51.37856656 96.49767327 46.34067523 96.53821619 41.30267525 96.58818626 C39.39205124 96.60471785 37.48137721 96.6163166 35.57069206 96.62261391 C24.22101011 96.66376171 13.72777969 97.36488716 2.6875 100.125 C1.49778847 100.41985039 1.49778847 100.41985039 0.28404236 100.72065735 C-0.24281662 100.85409042 -0.7696756 100.9875235 -1.3125 101.125 C-1.3125 101.785 -1.3125 102.445 -1.3125 103.125 C-2.00988281 103.3415625 -2.70726562 103.558125 -3.42578125 103.78125 C-7.05244611 105.46944041 -9.64620539 107.88982903 -12.5 110.625 C-13.06589844 111.15818848 -13.63179688 111.69137695 -14.21484375 112.24072266 C-15.92393183 113.85887108 -17.62066192 115.48883759 -19.3125 117.125 C-19.80572754 117.60163086 -20.29895508 118.07826172 -20.80712891 118.56933594 C-25.58410069 123.21134619 -30.18319376 127.89454543 -34.3125 133.125 C-38.31135941 131.51592101 -41.01264905 128.71377513 -43.99902344 125.71313477 C-44.55556107 125.16170807 -45.11209869 124.61028137 -45.6855011 124.04214478 C-47.51948533 122.22203628 -49.34597003 120.39461718 -51.171875 118.56640625 C-52.44389166 117.29827632 -53.71613194 116.03037067 -54.98858643 114.76268005 C-57.65157397 112.10714943 -60.31065828 109.44778197 -62.96728516 106.78588867 C-66.37765369 103.36971239 -69.79928021 99.96506426 -73.22411728 96.56340122 C-75.85264898 93.94957182 -78.47425256 91.32888 -81.0938797 88.70612907 C-82.35307562 87.44744767 -83.61464711 86.19113829 -84.87859344 84.93722725 C-86.64081478 83.18729105 -88.39329419 81.42814772 -90.14355469 79.66625977 C-90.6702626 79.14719559 -91.19697052 78.62813141 -91.73963928 78.09333801 C-95.3125 74.46758624 -95.3125 74.46758624 -95.3125 71.125 C-93.69391711 69.35677454 -92.06422691 67.75192053 -90.3125 66.125 C-89.20728346 65.038862 -88.10590485 63.94880883 -87.0078125 62.85546875 C-86.42797607 62.28078857 -85.84813965 61.7061084 -85.25073242 61.11401367 C-80.30854928 56.20377139 -75.45323563 51.30133504 -70.94921875 45.98046875 C-68.27955865 42.95400443 -65.36789322 40.17290057 -62.49609375 37.33984375 C-60.53275329 35.34840539 -58.69170331 33.31197422 -56.875 31.1875 C-52.62395511 26.23290222 -47.95926814 21.70453194 -43.3125 17.125 C-42.44496094 16.25230469 -41.57742187 15.37960937 -40.68359375 14.48046875 C-34.11077079 7.95095929 -27.75094388 5.74591255 -19.0546875 3.23828125 C-15.48148969 2.28461727 -15.48148969 2.28461727 -12.96484375 0.98828125 C-8.70777301 -0.39730437 -4.44250249 -0.08162902 0 0 Z " fill="#B35248" transform="translate(246.3125,391.875)"/>
<path d="M0 0 C5.5021816 -0.23136637 10.13853778 0.5649654 15.4375 2 C16.53481445 2.28617187 16.53481445 2.28617187 17.65429688 2.578125 C19.43819666 3.04450403 21.21939845 3.52118278 23 4 C23 4.66 23 5.32 23 6 C23.79535156 6.06703125 24.59070313 6.1340625 25.41015625 6.203125 C30.22399697 7.27170335 34.12213131 9.41517973 38.4375 11.75 C39.25798828 12.18054688 40.07847656 12.61109375 40.92382812 13.0546875 C45.90832597 15.71202554 50.47754679 18.61576853 55 22 C54.21818932 25.53647539 52.97413163 27.69510636 50.8125 30.625 C39.75232194 46.10471643 33.54889848 61.13993137 36.53125 80.4375 C38.01649909 86.89510475 40.15355685 91.51107397 44.3671875 96.67578125 C48.17353378 101.86918593 48.80697034 106.4085755 48.5546875 112.8046875 C47.46462572 119.08405745 43.9544962 122.99406969 39.625 127.4375 C36.14305543 129.51008605 32.96678261 130.19319676 29 131 C29 131.66 29 132.32 29 133 C28.39526855 133.04487549 27.79053711 133.08975098 27.16748047 133.13598633 C24.40215196 133.34856136 21.63875201 133.58035945 18.875 133.8125 C17.44800781 133.91788086 17.44800781 133.91788086 15.9921875 134.02539062 C8.43951364 134.68100468 3.2136401 136.18478604 -2 142 C-15.03512268 136.44261511 -25.31857007 116.56753855 -31.8125 104.625 C-32.32792358 103.68877808 -32.32792358 103.68877808 -32.85375977 102.73364258 C-33.76953125 100.9765625 -33.76953125 100.9765625 -35 98 C-34.67 97.01 -34.34 96.02 -34 95 C-31.3046875 94.04296875 -31.3046875 94.04296875 -27.875 93.1875 C-20.39911458 91.0234279 -16.21923692 88.50782609 -12.0625 81.9375 C-8.59133042 71.91944095 -11.36477826 63.40852838 -15.64453125 54.21875 C-17.91716995 48.82205177 -18.08195301 44.94912087 -16.07421875 39.4765625 C-13.83575685 34.62048555 -11.15775056 30.59444652 -7.4296875 26.765625 C-3.4341988 21.83130562 -2.44937531 16.92227657 -1.875 10.8125 C-1.0978975 3.29369251 -1.0978975 3.29369251 0 0 Z " fill="#67CBCF" transform="translate(363,113)"/>
<path d="M0 0 C0.7414325 -0.00095673 1.48286499 -0.00191345 2.24676514 -0.00289917 C3.80318284 -0.00357603 5.35960344 -0.00175639 6.91601562 0.00244141 C9.30344911 0.00782733 11.69069707 0.00246414 14.078125 -0.00390625 C15.59375042 -0.00324598 17.10937572 -0.00196587 18.625 0 C19.3395636 -0.00202423 20.0541272 -0.00404846 20.79034424 -0.00613403 C25.8169094 0.0178297 25.8169094 0.0178297 28.046875 1.1328125 C26.8244679 21.66082137 26.8244679 21.66082137 20.046875 30.1328125 C18.96278556 31.56974237 17.87942338 33.00722127 16.796875 34.4453125 C16.30445313 35.09242188 15.81203125 35.73953125 15.3046875 36.40625 C12.32316439 40.49889973 11.51072442 44.34546218 11.578125 49.42578125 C12.18057757 52.90494485 13.54200016 55.69205193 15.046875 58.8828125 C18.51030261 66.48265603 19.66827485 73.35835339 17.37890625 81.51171875 C14.83474116 87.36663142 10.28347745 91.38329766 4.734375 94.3828125 C0.55526874 95.54907471 -3.68678899 96.35410263 -7.953125 97.1328125 C-17.78770583 78.02164123 -24.14697225 55.35591541 -24.0859375 33.80078125 C-24.08689423 33.04235428 -24.08785095 32.28392731 -24.08883667 31.5025177 C-24.08951182 29.91517045 -24.0877044 28.32782033 -24.08349609 26.74047852 C-24.07810066 24.30934523 -24.08348274 21.87839354 -24.08984375 19.44726562 C-24.08918358 17.89843709 -24.08790369 16.34960867 -24.0859375 14.80078125 C-24.08796173 14.07577927 -24.08998596 13.35077728 -24.09207153 12.60380554 C-24.07759664 9.50564555 -23.94071233 7.09557449 -22.953125 4.1328125 C-21.09765625 3.21875 -21.09765625 3.21875 -18.765625 2.5078125 C-17.63060547 2.14816406 -17.63060547 2.14816406 -16.47265625 1.78125 C-10.9720762 0.36559684 -5.66100595 -0.01622042 0 0 Z " fill="#B0D852" transform="translate(334.953125,111.8671875)"/>
<path d="M0 0 C3.18706942 1.43561686 5.62169105 3.20266329 8.25 5.5 C8.95640625 6.1084375 9.6628125 6.716875 10.390625 7.34375 C12 9 12 9 12 11 C12.70511719 11.23589844 13.41023438 11.47179687 14.13671875 11.71484375 C17.52021644 13.23349415 19.94521925 15.21052003 22.8125 17.5625 C38.98984636 30.40014281 60.55007137 41.37303153 81 45 C79.37750292 48.90704757 76.72206828 51.7595616 73.875 54.8125 C73.3807251 55.34512451 72.8864502 55.87774902 72.37719727 56.42651367 C63.2968129 66.10156091 53.02694561 73.38530304 41.5625 80 C40.86382812 80.41040527 40.16515625 80.82081055 39.4453125 81.24365234 C37.67375329 82.24382357 35.83962165 83.13134778 34 84 C33.01 83.67 32.02 83.34 31 83 C30.93006836 82.42556152 30.86013672 81.85112305 30.78808594 81.25927734 C30.45841973 78.62883781 30.10443609 76.00221186 29.75 73.375 C29.64042969 72.47136719 29.53085937 71.56773437 29.41796875 70.63671875 C28.65938384 65.16692226 27.72326669 61.29308837 24 57 C21.3175056 54.92158601 21.3175056 54.92158601 18.3125 53.1875 C5.80099071 45.08466349 -2.35338009 34.79776442 -5.9296875 20.20703125 C-6.87010922 12.64241092 -5.74405502 7.92437864 -1.34765625 1.6953125 C-0.90292969 1.13585937 -0.45820313 0.57640625 0 0 Z " fill="#8FB607" transform="translate(359,256)"/>
<path d="M0 0 C0.66 0.33 1.32 0.66 2 1 C-4.27 7.27 -10.54 13.54 -17 20 C-17.66 19.67 -18.32 19.34 -19 19 C-13.30628533 12.54790121 -7.63191855 6.50639713 -1 1 C-0.67 0.67 -0.34 0.34 0 0 Z " fill="#516B9F" transform="translate(257,121)"/>
</svg>
